<?xml version="1.0" encoding="us-ascii" standalone="no"?><svg xmlns="http://www.w3.org/2000/svg" xmlns:xlink="http://www.w3.org/1999/xlink" contentStyleType="text/css" height="634px" preserveAspectRatio="none" style="width:446px;height:634px;background:#FFFFFF;" version="1.1" viewBox="0 0 446 634" width="446px" zoomAndPan="magnify"><defs/><g><!--cluster command_pattern--><g id="cluster_command_pattern"><path d="M8.5,6 L157.5,6 A3.75,3.75 0 0 1 160,8.5 L167,28.2969 L436.5,28.2969 A2.5,2.5 0 0 1 439,30.7969 L439,624.5 A2.5,2.5 0 0 1 436.5,627 L8.5,627 A2.5,2.5 0 0 1 6,624.5 L6,8.5 A2.5,2.5 0 0 1 8.5,6 " fill="none" style="stroke:#000000;stroke-width:1.5;"/><line style="stroke:#000000;stroke-width:1.5;" x1="6" x2="167" y1="28.2969" y2="28.2969"/><text fill="#000000" font-family="sans-serif" font-size="14" font-weight="bold" lengthAdjust="spacing" textLength="148" x="10" y="20.9951">command_pattern</text></g><!--cluster command_pattern.dart--><g id="cluster_command_pattern.dart"><path d="M32.5,49 L221.5,49 A3.75,3.75 0 0 1 224,51.5 L231,71.2969 L412.5,71.2969 A2.5,2.5 0 0 1 415,73.7969 L415,600.5 A2.5,2.5 0 0 1 412.5,603 L32.5,603 A2.5,2.5 0 0 1 30,600.5 L30,51.5 A2.5,2.5 0 0 1 32.5,49 " fill="none" style="stroke:#000000;stroke-width:1.5;"/><line style="stroke:#000000;stroke-width:1.5;" x1="30" x2="231" y1="71.2969" y2="71.2969"/><text fill="#000000" font-family="sans-serif" font-size="14" font-weight="bold" lengthAdjust="spacing" textLength="188" x="34" y="63.9951">command_pattern.dart</text></g><!--class Command--><g id="elem_Command"><rect codeLine="3" fill="#F1F1F1" height="64.2969" id="Command" rx="2.5" ry="2.5" style="stroke:#181818;stroke-width:0.5;" width="128" x="158" y="241"/><ellipse cx="182.9" cy="257" fill="#A9DCDF" rx="11" ry="11" style="stroke:#181818;stroke-width:1.0;"/><path d="M184.9781,258.8125 L185.3688,259.7969 L184.9781,259.7969 C184.525,259.7969 184.4156,259.8125 184.2594,259.9219 C184.0094,260.0781 183.8531,260.3594 183.8531,260.6563 C183.8531,260.9219 183.9938,261.1719 184.2125,261.3281 C184.3531,261.4531 184.5563,261.5 184.9781,261.5 L187.3375,261.5 C187.6969,261.5 187.9156,261.4688 188.0563,261.375 C188.3063,261.2344 188.4625,260.9375 188.4625,260.6563 C188.4625,260.375 188.3219,260.125 188.1031,259.9688 C187.9313,259.8281 187.775,259.7969 187.3063,259.7969 L183.9156,251.5938 L180.2438,251.5938 C179.7906,251.5938 179.6656,251.6094 179.5094,251.7031 C179.2594,251.875 179.1031,252.1563 179.1031,252.4375 C179.1031,252.7188 179.2438,252.9688 179.4625,253.1406 C179.6344,253.25 179.8063,253.2813 180.2438,253.2813 L181.3219,253.2813 L178.6813,259.7969 C178.2594,259.7969 178.1031,259.8125 177.9469,259.9219 C177.6969,260.0781 177.5406,260.3594 177.5406,260.6563 C177.5406,261.2188 177.9156,261.5 178.6656,261.5 L180.9313,261.5 C181.2906,261.5 181.5094,261.4688 181.6344,261.375 C181.9,261.2344 182.0406,260.9375 182.0406,260.6563 C182.0406,260.375 181.9156,260.125 181.6969,259.9531 C181.525,259.8281 181.3844,259.7969 180.9313,259.7969 L180.5406,259.7969 L180.9313,258.8125 L184.9781,258.8125 Z M184.275,257.1094 L181.6031,257.1094 L182.9469,253.8438 L184.275,257.1094 Z " fill="#000000"/><text fill="#000000" font-family="sans-serif" font-size="14" font-style="italic" lengthAdjust="spacing" textLength="74" x="199.1" y="261.8467">Command</text><line style="stroke:#181818;stroke-width:0.5;" x1="159" x2="285" y1="273" y2="273"/><line style="stroke:#181818;stroke-width:0.5;" x1="159" x2="285" y1="281" y2="281"/><ellipse cx="169" cy="294.6484" fill="#84BE84" rx="3" ry="3" style="stroke:#038048;stroke-width:1.0;"/><text fill="#000000" font-family="sans-serif" font-size="14" lengthAdjust="spacing" textLength="102" x="178" y="297.9951">void execute()</text></g><!--class Light--><g id="elem_Light"><rect codeLine="7" fill="#F1F1F1" height="80.5938" id="Light" rx="2.5" ry="2.5" style="stroke:#181818;stroke-width:0.5;" width="123" x="160.5" y="506"/><ellipse cx="199.8" cy="522" fill="#ADD1B2" rx="11" ry="11" style="stroke:#181818;stroke-width:1.0;"/><path d="M202.1438,517.6719 C201.2063,517.2344 200.6125,517.0938 199.7375,517.0938 C197.1125,517.0938 195.1125,519.1719 195.1125,521.8906 L195.1125,523.0156 C195.1125,525.5938 197.2219,527.4844 200.1125,527.4844 C201.3313,527.4844 202.4875,527.1875 203.2375,526.6406 C203.8156,526.2344 204.1438,525.7813 204.1438,525.3906 C204.1438,524.9375 203.7531,524.5469 203.2844,524.5469 C203.0656,524.5469 202.8625,524.625 202.675,524.8125 C202.2219,525.2969 202.2219,525.2969 202.0344,525.3906 C201.6125,525.6563 200.925,525.7813 200.1594,525.7813 C198.1125,525.7813 196.8156,524.6875 196.8156,522.9844 L196.8156,521.8906 C196.8156,520.1094 198.0656,518.7969 199.8,518.7969 C200.3781,518.7969 200.9875,518.9531 201.4563,519.2031 C201.9406,519.4844 202.1125,519.7031 202.2063,520.1094 C202.2688,520.5156 202.3,520.6406 202.4406,520.7656 C202.5813,520.9063 202.8156,521.0156 203.0344,521.0156 C203.3,521.0156 203.5656,520.875 203.7375,520.6563 C203.8469,520.5 203.8781,520.3125 203.8781,519.8906 L203.8781,518.4688 C203.8781,518.0313 203.8625,517.9063 203.7688,517.75 C203.6125,517.4844 203.3313,517.3438 203.0344,517.3438 C202.7375,517.3438 202.5344,517.4375 202.3156,517.75 L202.1438,517.6719 Z " fill="#000000"/><text fill="#000000" font-family="sans-serif" font-size="14" lengthAdjust="spacing" textLength="37" x="219.2" y="526.8467">Light</text><line style="stroke:#181818;stroke-width:0.5;" x1="161.5" x2="282.5" y1="538" y2="538"/><line style="stroke:#181818;stroke-width:0.5;" x1="161.5" x2="282.5" y1="546" y2="546"/><ellipse cx="171.5" cy="559.6484" fill="#84BE84" rx="3" ry="3" style="stroke:#038048;stroke-width:1.0;"/><text fill="#000000" font-family="sans-serif" font-size="14" lengthAdjust="spacing" textLength="94" x="180.5" y="562.9951">void turnOn()</text><ellipse cx="171.5" cy="575.9453" fill="#84BE84" rx="3" ry="3" style="stroke:#038048;stroke-width:1.0;"/><text fill="#000000" font-family="sans-serif" font-size="14" lengthAdjust="spacing" textLength="97" x="180.5" y="579.292">void turnOff()</text></g><!--class TurnOnCommand--><g id="elem_TurnOnCommand"><rect codeLine="12" fill="#F1F1F1" height="80.5938" id="TurnOnCommand" rx="2.5" ry="2.5" style="stroke:#181818;stroke-width:0.5;" width="157" x="46.5" y="365"/><ellipse cx="61.5" cy="381" fill="#ADD1B2" rx="11" ry="11" style="stroke:#181818;stroke-width:1.0;"/><path d="M63.8438,376.6719 C62.9063,376.2344 62.3125,376.0938 61.4375,376.0938 C58.8125,376.0938 56.8125,378.1719 56.8125,380.8906 L56.8125,382.0156 C56.8125,384.5938 58.9219,386.4844 61.8125,386.4844 C63.0313,386.4844 64.1875,386.1875 64.9375,385.6406 C65.5156,385.2344 65.8438,384.7813 65.8438,384.3906 C65.8438,383.9375 65.4531,383.5469 64.9844,383.5469 C64.7656,383.5469 64.5625,383.625 64.375,383.8125 C63.9219,384.2969 63.9219,384.2969 63.7344,384.3906 C63.3125,384.6563 62.625,384.7813 61.8594,384.7813 C59.8125,384.7813 58.5156,383.6875 58.5156,381.9844 L58.5156,380.8906 C58.5156,379.1094 59.7656,377.7969 61.5,377.7969 C62.0781,377.7969 62.6875,377.9531 63.1563,378.2031 C63.6406,378.4844 63.8125,378.7031 63.9063,379.1094 C63.9688,379.5156 64,379.6406 64.1406,379.7656 C64.2813,379.9063 64.5156,380.0156 64.7344,380.0156 C65,380.0156 65.2656,379.875 65.4375,379.6563 C65.5469,379.5 65.5781,379.3125 65.5781,378.8906 L65.5781,377.4688 C65.5781,377.0313 65.5625,376.9063 65.4688,376.75 C65.3125,376.4844 65.0313,376.3438 64.7344,376.3438 C64.4375,376.3438 64.2344,376.4375 64.0156,376.75 L63.8438,376.6719 Z " fill="#000000"/><text fill="#000000" font-family="sans-serif" font-size="14" lengthAdjust="spacing" textLength="125" x="75.5" y="385.8467">TurnOnCommand</text><line style="stroke:#181818;stroke-width:0.5;" x1="47.5" x2="202.5" y1="397" y2="397"/><rect fill="none" height="6" style="stroke:#C82930;stroke-width:1.0;" width="6" x="54.5" y="407.6484"/><text fill="#000000" font-family="sans-serif" font-size="14" lengthAdjust="spacing" textLength="81" x="66.5" y="413.9951">Light _light</text><line style="stroke:#181818;stroke-width:0.5;" x1="47.5" x2="202.5" y1="421.2969" y2="421.2969"/><ellipse cx="57.5" cy="434.9453" fill="#84BE84" rx="3" ry="3" style="stroke:#038048;stroke-width:1.0;"/><text fill="#000000" font-family="sans-serif" font-size="14" lengthAdjust="spacing" textLength="102" x="66.5" y="438.292">void execute()</text></g><!--class TurnOffCommand--><g id="elem_TurnOffCommand"><rect codeLine="20" fill="#F1F1F1" height="80.5938" id="TurnOffCommand" rx="2.5" ry="2.5" style="stroke:#181818;stroke-width:0.5;" width="160" x="239" y="365"/><ellipse cx="254" cy="381" fill="#ADD1B2" rx="11" ry="11" style="stroke:#181818;stroke-width:1.0;"/><path d="M256.3438,376.6719 C255.4063,376.2344 254.8125,376.0938 253.9375,376.0938 C251.3125,376.0938 249.3125,378.1719 249.3125,380.8906 L249.3125,382.0156 C249.3125,384.5938 251.4219,386.4844 254.3125,386.4844 C255.5313,386.4844 256.6875,386.1875 257.4375,385.6406 C258.0156,385.2344 258.3438,384.7813 258.3438,384.3906 C258.3438,383.9375 257.9531,383.5469 257.4844,383.5469 C257.2656,383.5469 257.0625,383.625 256.875,383.8125 C256.4219,384.2969 256.4219,384.2969 256.2344,384.3906 C255.8125,384.6563 255.125,384.7813 254.3594,384.7813 C252.3125,384.7813 251.0156,383.6875 251.0156,381.9844 L251.0156,380.8906 C251.0156,379.1094 252.2656,377.7969 254,377.7969 C254.5781,377.7969 255.1875,377.9531 255.6563,378.2031 C256.1406,378.4844 256.3125,378.7031 256.4063,379.1094 C256.4688,379.5156 256.5,379.6406 256.6406,379.7656 C256.7813,379.9063 257.0156,380.0156 257.2344,380.0156 C257.5,380.0156 257.7656,379.875 257.9375,379.6563 C258.0469,379.5 258.0781,379.3125 258.0781,378.8906 L258.0781,377.4688 C258.0781,377.0313 258.0625,376.9063 257.9688,376.75 C257.8125,376.4844 257.5313,376.3438 257.2344,376.3438 C256.9375,376.3438 256.7344,376.4375 256.5156,376.75 L256.3438,376.6719 Z " fill="#000000"/><text fill="#000000" font-family="sans-serif" font-size="14" lengthAdjust="spacing" textLength="128" x="268" y="385.8467">TurnOffCommand</text><line style="stroke:#181818;stroke-width:0.5;" x1="240" x2="398" y1="397" y2="397"/><rect fill="none" height="6" style="stroke:#C82930;stroke-width:1.0;" width="6" x="247" y="407.6484"/><text fill="#000000" font-family="sans-serif" font-size="14" lengthAdjust="spacing" textLength="81" x="259" y="413.9951">Light _light</text><line style="stroke:#181818;stroke-width:0.5;" x1="240" x2="398" y1="421.2969" y2="421.2969"/><ellipse cx="250" cy="434.9453" fill="#84BE84" rx="3" ry="3" style="stroke:#038048;stroke-width:1.0;"/><text fill="#000000" font-family="sans-serif" font-size="14" lengthAdjust="spacing" textLength="102" x="259" y="438.292">void execute()</text></g><!--class RemoteControl--><g id="elem_RemoteControl"><rect codeLine="28" fill="#F1F1F1" height="96.8906" id="RemoteControl" rx="2.5" ry="2.5" style="stroke:#181818;stroke-width:0.5;" width="181" x="131.5" y="84"/><ellipse cx="163.15" cy="100" fill="#ADD1B2" rx="11" ry="11" style="stroke:#181818;stroke-width:1.0;"/><path d="M165.4938,95.6719 C164.5563,95.2344 163.9625,95.0938 163.0875,95.0938 C160.4625,95.0938 158.4625,97.1719 158.4625,99.8906 L158.4625,101.0156 C158.4625,103.5938 160.5719,105.4844 163.4625,105.4844 C164.6813,105.4844 165.8375,105.1875 166.5875,104.6406 C167.1656,104.2344 167.4938,103.7813 167.4938,103.3906 C167.4938,102.9375 167.1031,102.5469 166.6344,102.5469 C166.4156,102.5469 166.2125,102.625 166.025,102.8125 C165.5719,103.2969 165.5719,103.2969 165.3844,103.3906 C164.9625,103.6563 164.275,103.7813 163.5094,103.7813 C161.4625,103.7813 160.1656,102.6875 160.1656,100.9844 L160.1656,99.8906 C160.1656,98.1094 161.4156,96.7969 163.15,96.7969 C163.7281,96.7969 164.3375,96.9531 164.8063,97.2031 C165.2906,97.4844 165.4625,97.7031 165.5563,98.1094 C165.6188,98.5156 165.65,98.6406 165.7906,98.7656 C165.9313,98.9063 166.1656,99.0156 166.3844,99.0156 C166.65,99.0156 166.9156,98.875 167.0875,98.6563 C167.1969,98.5 167.2281,98.3125 167.2281,97.8906 L167.2281,96.4688 C167.2281,96.0313 167.2125,95.9063 167.1188,95.75 C166.9625,95.4844 166.6813,95.3438 166.3844,95.3438 C166.0875,95.3438 165.8844,95.4375 165.6656,95.75 L165.4938,95.6719 Z " fill="#000000"/><text fill="#000000" font-family="sans-serif" font-size="14" lengthAdjust="spacing" textLength="112" x="180.85" y="104.8467">RemoteControl</text><line style="stroke:#181818;stroke-width:0.5;" x1="132.5" x2="311.5" y1="116" y2="116"/><rect fill="none" height="6" style="stroke:#C82930;stroke-width:1.0;" width="6" x="139.5" y="126.6484"/><text fill="#000000" font-family="sans-serif" font-size="14" lengthAdjust="spacing" textLength="155" x="151.5" y="132.9951">Command _command</text><line style="stroke:#181818;stroke-width:0.5;" x1="132.5" x2="311.5" y1="140.2969" y2="140.2969"/><ellipse cx="142.5" cy="153.9453" fill="#84BE84" rx="3" ry="3" style="stroke:#038048;stroke-width:1.0;"/><text fill="#000000" font-family="sans-serif" font-size="14" lengthAdjust="spacing" textLength="140" x="151.5" y="157.292">void setCommand()</text><ellipse cx="142.5" cy="170.2422" fill="#84BE84" rx="3" ry="3" style="stroke:#038048;stroke-width:1.0;"/><text fill="#000000" font-family="sans-serif" font-size="14" lengthAdjust="spacing" textLength="133" x="151.5" y="173.5889">void pressButton()</text></g><!--reverse link TurnOnCommand to Light--><g id="link_TurnOnCommand_Light"><path codeLine="17" d="M160.327,457.123 C171.484,473.111 183.646,490.54 194.2,505.662 " fill="none" id="TurnOnCommand-backto-Light" style="stroke:#181818;stroke-width:1.0;"/><polygon fill="none" points="152.796,446.332,152.9499,453.5415,159.6639,456.1723,159.5101,448.9629,152.796,446.332" style="stroke:#181818;stroke-width:1.0;"/></g><!--reverse link Command to TurnOnCommand--><g id="link_Command_TurnOnCommand"><path codeLine="18" d="M186.569,321.668 C176.093,335.762 164.738,351.039 154.665,364.589 " fill="none" id="Command-backto-TurnOnCommand" style="stroke:#181818;stroke-width:1.0;"/><polygon fill="none" points="181.217,317.134,198.766,305.258,192.453,325.485,181.217,317.134" style="stroke:#181818;stroke-width:1.0;"/></g><!--reverse link TurnOffCommand to Light--><g id="link_TurnOffCommand_Light"><path codeLine="25" d="M283.673,457.123 C272.516,473.111 260.354,490.54 249.8,505.662 " fill="none" id="TurnOffCommand-backto-Light" style="stroke:#181818;stroke-width:1.0;"/><polygon fill="none" points="291.204,446.332,284.4899,448.9629,284.3361,456.1723,291.0501,453.5415,291.204,446.332" style="stroke:#181818;stroke-width:1.0;"/></g><!--reverse link Command to TurnOffCommand--><g id="link_Command_TurnOffCommand"><path codeLine="26" d="M257.431,321.668 C267.907,335.762 279.262,351.039 289.335,364.589 " fill="none" id="Command-backto-TurnOffCommand" style="stroke:#181818;stroke-width:1.0;"/><polygon fill="none" points="251.547,325.485,245.234,305.258,262.783,317.134,251.547,325.485" style="stroke:#181818;stroke-width:1.0;"/></g><!--reverse link RemoteControl to Command--><g id="link_RemoteControl_Command"><path codeLine="34" d="M222,194.4 C222,210.418 222,227.04 222,240.772 " fill="none" id="RemoteControl-backto-Command" style="stroke:#181818;stroke-width:1.0;"/><polygon fill="none" points="222,181.164,218,187.164,222,193.164,226,187.164,222,181.164" style="stroke:#181818;stroke-width:1.0;"/></g><!--SRC=[pP912i8m44NtESNWIf5wWE3ARWL1tPSndMgXJK8o5K6zkrghjiLD2eAhm8Iy_-SHJmmQI_8M5Mt8eaCs3gGK0dUU7Ie6LQ3tC5AcB56dYKLcSbhAtc2MecCfu-Tq16S1C3sQF0KwaQgOnXDn5IACjipt1swpk79wfU-epY3BXi2tDQjJEAe38IaUn_S51j9D50LkBOALpoy18Tr-WznbsK_bjV3_QUzJC5JVcah351lDpXIDlOO5IVFaRT0JDtUjVsyTUR-ec8qEKzkB3Z7xslO6]--></g></svg>